<svg xmlns="http://www.w3.org/2000/svg" width="799.031" height="618.112" viewBox="0 0 799.031 618.112" xmlns:xlink="http://www.w3.org/1999/xlink" role="img" artist="Katerina Limpitsouni" source="https://undraw.co/"><g transform="translate(-560 -231.001)"><path d="M15.18,488.763c0,.872.478,1.573,1.073,1.573h535.1c.6,0,1.073-.7,1.073-1.573s-.478-1.573-1.073-1.573H16.253C15.658,487.191,15.18,487.891,15.18,488.763Z" transform="translate(675.479 358.777)" fill="#ccc"/><rect width="19.105" height="3.371" transform="translate(865.162 842.355)" fill="#b6b3c5"/><rect width="19.105" height="3.371" transform="translate(1034.295 842.918)" fill="#b6b3c5"/><path d="M352.955,370.945a27.529,27.529,0,0,1-54.321,0H229.146V521.536h193.3V370.945H352.955Z" transform="translate(633.721 321.379)" fill="#d6d6e3"/><rect width="193.296" height="5.242" transform="translate(863.43 830.984)" fill="#090814"/><path d="M788.255,487.17H10.776A10.788,10.788,0,0,1,0,476.394V32.688A10.788,10.788,0,0,1,10.776,21.911H788.255a10.789,10.789,0,0,1,10.776,10.776V476.394a10.789,10.789,0,0,1-10.776,10.776Z" transform="translate(560 209.09)" fill="#090814"/><rect width="760.822" height="429.297" transform="translate(580 249)" fill="#fff"/><g transform="translate(0 15.111)"><rect width="22.297" height="6.768" rx="3.384" transform="translate(651.374 379.865)" fill="#d6d6e3"/><rect width="22.297" height="6.768" rx="3.384" transform="translate(1246.329 380.066)" fill="#d6d6e3"/><rect width="22.297" height="6.768" rx="3.384" transform="translate(651.574 427.443)" fill="#d6d6e3"/><rect width="22.297" height="6.768" rx="3.384" transform="translate(651.775 475.02)" fill="#d6d6e3"/><rect width="22.297" height="6.768" rx="3.384" transform="translate(651.976 522.588)" fill="#d6d6e3"/><g transform="translate(673.671 383.123)" opacity="0.2"><rect width="6.325" height="0.264" transform="translate(0 0)" fill="#f2f2f2"/><path d="M885.147,405.884H872.718v-.264h12.429Zm-24.869,0H847.848v-.264h12.429Zm-24.869,0h-12.44v-.264h12.44Zm-24.869,0H798.1v-.264h12.44Zm-24.869,0H773.23v-.264h12.44Zm-24.88,0H748.361v-.264H760.79Zm-24.869,0h-12.44v-.264h12.44Zm-24.869,0h-12.44v-.264h12.44Zm-24.869,0h-12.44v-.264h12.44Zm-24.88,0H648.873v-.264H661.3Zm-24.869,0h-12.44v-.264h12.44Zm-24.869,0h-12.44v-.264h12.44Zm-24.869,0h-12.44v-.264h12.44Zm-24.88,0H549.385v-.264h12.429Zm-24.869,0H524.516v-.264h12.429Zm-24.869,0h-12.4v-.264h12.44Zm-24.869,0h-12.44v-.264h12.44Zm-24.88,0H449.9v-.264h12.429Zm-24.869,0H425.028v-.264h12.45Zm-24.869,0h-12.44v-.264h12.44Zm-24.869,0h-12.44v-.264h12.44Zm-24.88,0H350.41v-.264h12.429Z" transform="translate(-331.645 -405.62)" fill="#f2f2f2"/><rect width="6.325" height="0.264" transform="translate(565.942 0)" fill="#f2f2f2"/><rect width="6.325" height="0.264" transform="translate(0 0)" fill="#f2f2f2"/><path d="M885.147,405.884H872.718v-.264h12.429Zm-24.869,0H847.848v-.264h12.429Zm-24.869,0h-12.44v-.264h12.44Zm-24.869,0H798.1v-.264h12.44Zm-24.869,0H773.23v-.264h12.44Zm-24.88,0H748.361v-.264H760.79Zm-24.869,0h-12.44v-.264h12.44Zm-24.869,0h-12.44v-.264h12.44Zm-24.869,0h-12.44v-.264h12.44Zm-24.88,0H648.873v-.264H661.3Zm-24.869,0h-12.44v-.264h12.44Zm-24.869,0h-12.44v-.264h12.44Zm-24.869,0h-12.44v-.264h12.44Zm-24.88,0H549.385v-.264h12.429Zm-24.869,0H524.516v-.264h12.429Zm-24.869,0h-12.4v-.264h12.44Zm-24.869,0h-12.44v-.264h12.44Zm-24.88,0H449.9v-.264h12.429Zm-24.869,0H425.028v-.264h12.45Zm-24.869,0h-12.44v-.264h12.44Zm-24.869,0h-12.44v-.264h12.44Zm-24.88,0H350.41v-.264h12.429Z" transform="translate(-331.645 -405.62)" fill="#f2f2f2"/><rect width="6.325" height="0.264" transform="translate(565.942 0)" fill="#f2f2f2"/></g><rect width="22.297" height="6.768" rx="3.384" transform="translate(651.374 332.424)" fill="#d6d6e3"/><rect width="22.297" height="6.768" rx="3.384" transform="translate(1246.329 332.627)" fill="#d6d6e3"/><g transform="translate(673.671 335.684)" opacity="0.2"><rect width="6.325" height="0.264" transform="translate(0 0)" fill="#f2f2f2"/><path d="M885.147,360.884H872.718v-.264h12.429Zm-24.869,0H847.848v-.264h12.429Zm-24.869,0h-12.44v-.264h12.44Zm-24.869,0H798.1v-.264h12.44Zm-24.869,0H773.23v-.264h12.44Zm-24.88,0H748.361v-.264H760.79Zm-24.869,0h-12.44v-.264h12.44Zm-24.869,0h-12.44v-.264h12.44Zm-24.869,0h-12.44v-.264h12.44Zm-24.88,0H648.873v-.264H661.3Zm-24.869,0h-12.44v-.264h12.44Zm-24.869,0h-12.44v-.264h12.44Zm-24.869,0h-12.44v-.264h12.44Zm-24.88,0H549.385v-.264h12.429Zm-24.869,0H524.516v-.264h12.429Zm-24.869,0h-12.4v-.264h12.44Zm-24.869,0h-12.44v-.264h12.44Zm-24.88,0H449.9v-.264h12.429Zm-24.869,0H425.028v-.264h12.45Zm-24.869,0h-12.44v-.264h12.44Zm-24.869,0h-12.44v-.264h12.44Zm-24.88,0H350.41v-.264h12.429Z" transform="translate(-331.645 -360.62)" fill="#f2f2f2"/><rect width="6.325" height="0.264" transform="translate(565.942 0)" fill="#f2f2f2"/></g><rect width="22.297" height="6.768" rx="3.384" transform="translate(1246.329 427.443)" fill="#d6d6e3"/><g transform="translate(673.671 430.49)" opacity="0.2"><rect width="6.325" height="0.264" transform="translate(0 0.011)" fill="#f2f2f2"/><path d="M885.147,450.814H872.718v-.264h12.429Zm-24.869,0H847.848v-.264h12.429Zm-24.869,0h-12.44v-.264h12.44Zm-24.869,0H798.1v-.264h12.44Zm-24.869,0H773.23v-.264h12.44Zm-24.88,0H748.361v-.264H760.79Zm-24.869,0h-12.44v-.264h12.44Zm-24.869,0h-12.44v-.264h12.44Zm-24.869,0h-12.44v-.264h12.44Zm-24.88,0H648.873v-.264H661.3Zm-24.869,0h-12.44v-.264h12.44Zm-24.869,0h-12.44v-.264h12.44Zm-24.869,0h-12.44v-.264h12.44Zm-24.88,0H549.385v-.264h12.429Zm-24.869,0H524.516v-.264h12.429Zm-24.869,0h-12.4v-.264h12.44Zm-24.869,0h-12.44v-.264h12.44Zm-24.88,0H449.9v-.264h12.429Zm-24.869,0H425.028v-.264h12.45Zm-24.869,0h-12.44v-.264h12.44Zm-24.869,0h-12.44v-.264h12.44Zm-24.88,0H350.41v-.264h12.429Z" transform="translate(-331.645 -450.55)" fill="#f2f2f2"/><rect width="6.325" height="0.264" transform="translate(565.942 0.011)" fill="#f2f2f2"/><rect width="6.325" height="0.264" transform="translate(0 0.011)" fill="#f2f2f2"/><path d="M885.147,450.814H872.718v-.264h12.429Zm-24.869,0H847.848v-.264h12.429Zm-24.869,0h-12.44v-.264h12.44Zm-24.869,0H798.1v-.264h12.44Zm-24.869,0H773.23v-.264h12.44Zm-24.88,0H748.361v-.264H760.79Zm-24.869,0h-12.44v-.264h12.44Zm-24.869,0h-12.44v-.264h12.44Zm-24.869,0h-12.44v-.264h12.44Zm-24.88,0H648.873v-.264H661.3Zm-24.869,0h-12.44v-.264h12.44Zm-24.869,0h-12.44v-.264h12.44Zm-24.869,0h-12.44v-.264h12.44Zm-24.88,0H549.385v-.264h12.429Zm-24.869,0H524.516v-.264h12.429Zm-24.869,0h-12.4v-.264h12.44Zm-24.869,0h-12.44v-.264h12.44Zm-24.88,0H449.9v-.264h12.429Zm-24.869,0H425.028v-.264h12.45Zm-24.869,0h-12.44v-.264h12.44Zm-24.869,0h-12.44v-.264h12.44Zm-24.88,0H350.41v-.264h12.429Z" transform="translate(-331.645 -450.55)" fill="#f2f2f2"/><rect width="6.325" height="0.264" transform="translate(565.942 0.011)" fill="#f2f2f2"/></g><rect width="22.297" height="6.768" rx="3.384" transform="translate(1246.329 474.82)" fill="#d6d6e3"/><g transform="translate(673.671 477.867)" opacity="0.2"><rect width="6.325" height="0.264" transform="translate(0 0)" fill="#f2f2f2"/><path d="M885.147,495.754H872.718v-.264h12.429Zm-24.869,0H847.848v-.264h12.429Zm-24.869,0h-12.44v-.264h12.44Zm-24.869,0H798.1v-.264h12.44Zm-24.869,0H773.23v-.264h12.44Zm-24.88,0H748.361v-.264H760.79Zm-24.869,0h-12.44v-.264h12.44Zm-24.869,0h-12.44v-.264h12.44Zm-24.869,0h-12.44v-.264h12.44Zm-24.88,0H648.873v-.264H661.3Zm-24.869,0h-12.44v-.264h12.44Zm-24.869,0h-12.44v-.264h12.44Zm-24.869,0h-12.44v-.264h12.44Zm-24.88,0H549.385v-.264h12.429Zm-24.869,0H524.516v-.264h12.429Zm-24.869,0h-12.4v-.264h12.44Zm-24.869,0h-12.44v-.264h12.44Zm-24.88,0H449.9v-.264h12.429Zm-24.869,0H425.028v-.264h12.45Zm-24.869,0h-12.44v-.264h12.44Zm-24.869,0h-12.44v-.264h12.44Zm-24.88,0H350.41v-.264h12.429Z" transform="translate(-331.645 -495.49)" fill="#f2f2f2"/><rect width="6.325" height="0.264" transform="translate(565.942 0)" fill="#f2f2f2"/><rect width="6.325" height="0.264" transform="translate(0 0)" fill="#f2f2f2"/><path d="M885.147,495.754H872.718v-.264h12.429Zm-24.869,0H847.848v-.264h12.429Zm-24.869,0h-12.44v-.264h12.44Zm-24.869,0H798.1v-.264h12.44Zm-24.869,0H773.23v-.264h12.44Zm-24.88,0H748.361v-.264H760.79Zm-24.869,0h-12.44v-.264h12.44Zm-24.869,0h-12.44v-.264h12.44Zm-24.869,0h-12.44v-.264h12.44Zm-24.88,0H648.873v-.264H661.3Zm-24.869,0h-12.44v-.264h12.44Zm-24.869,0h-12.44v-.264h12.44Zm-24.869,0h-12.44v-.264h12.44Zm-24.88,0H549.385v-.264h12.429Zm-24.869,0H524.516v-.264h12.429Zm-24.869,0h-12.4v-.264h12.44Zm-24.869,0h-12.44v-.264h12.44Zm-24.88,0H449.9v-.264h12.429Zm-24.869,0H425.028v-.264h12.45Zm-24.869,0h-12.44v-.264h12.44Zm-24.869,0h-12.44v-.264h12.44Zm-24.88,0H350.41v-.264h12.429Z" transform="translate(-331.645 -495.49)" fill="#f2f2f2"/><rect width="6.325" height="0.264" transform="translate(565.942 0)" fill="#f2f2f2"/></g><rect width="22.297" height="6.768" rx="3.384" transform="translate(1246.329 522.186)" fill="#d6d6e3"/><g transform="translate(673.671 525.244)" opacity="0.2"><rect width="6.325" height="0.264" transform="translate(0 0)" fill="#f2f2f2"/><path d="M885.147,540.694H872.718v-.264h12.429Zm-24.869,0H847.848v-.264h12.429Zm-24.869,0h-12.44v-.264h12.44Zm-24.869,0H798.1v-.264h12.44Zm-24.869,0H773.23v-.264h12.44Zm-24.88,0H748.361v-.264H760.79Zm-24.869,0h-12.44v-.264h12.44Zm-24.869,0h-12.44v-.264h12.44Zm-24.869,0h-12.44v-.264h12.44Zm-24.88,0H648.873v-.264H661.3Zm-24.869,0h-12.44v-.264h12.44Zm-24.869,0h-12.44v-.264h12.44Zm-24.869,0h-12.44v-.264h12.44Zm-24.88,0H549.385v-.264h12.429Zm-24.869,0H524.516v-.264h12.429Zm-24.869,0h-12.4v-.264h12.44Zm-24.869,0h-12.44v-.264h12.44Zm-24.88,0H449.9v-.264h12.429Zm-24.869,0H425.028v-.264h12.45Zm-24.869,0h-12.44v-.264h12.44Zm-24.869,0h-12.44v-.264h12.44Zm-24.88,0H350.41v-.264h12.429Z" transform="translate(-331.645 -540.43)" fill="#f2f2f2"/><rect width="6.325" height="0.264" transform="translate(565.942 0)" fill="#f2f2f2"/><rect width="6.325" height="0.264" transform="translate(0 0)" fill="#f2f2f2"/><path d="M885.147,540.694H872.718v-.264h12.429Zm-24.869,0H847.848v-.264h12.429Zm-24.869,0h-12.44v-.264h12.44Zm-24.869,0H798.1v-.264h12.44Zm-24.869,0H773.23v-.264h12.44Zm-24.88,0H748.361v-.264H760.79Zm-24.869,0h-12.44v-.264h12.44Zm-24.869,0h-12.44v-.264h12.44Zm-24.869,0h-12.44v-.264h12.44Zm-24.88,0H648.873v-.264H661.3Zm-24.869,0h-12.44v-.264h12.44Zm-24.869,0h-12.44v-.264h12.44Zm-24.869,0h-12.44v-.264h12.44Zm-24.88,0H549.385v-.264h12.429Zm-24.869,0H524.516v-.264h12.429Zm-24.869,0h-12.4v-.264h12.44Zm-24.869,0h-12.44v-.264h12.44Zm-24.88,0H449.9v-.264h12.429Zm-24.869,0H425.028v-.264h12.45Zm-24.869,0h-12.44v-.264h12.44Zm-24.869,0h-12.44v-.264h12.44Zm-24.88,0H350.41v-.264h12.429Z" transform="translate(-331.645 -540.43)" fill="#f2f2f2"/><rect width="6.325" height="0.264" transform="translate(565.942 0)" fill="#f2f2f2"/></g><line y2="189.962" transform="translate(746.36 336.01)" fill="none" stroke="#f2f2f2" stroke-miterlimit="10" stroke-width="0.1"/><line y2="189.962" transform="translate(823.319 336.01)" fill="none" stroke="#f2f2f2" stroke-miterlimit="10" stroke-width="0.1"/><line y2="189.962" transform="translate(900.278 336.01)" fill="none" stroke="#f2f2f2" stroke-miterlimit="10" stroke-width="0.1"/><line y2="189.962" transform="translate(977.237 336.01)" fill="none" stroke="#f2f2f2" stroke-miterlimit="10" stroke-width="0.1"/><line y2="189.962" transform="translate(1054.196 336.01)" fill="none" stroke="#f2f2f2" stroke-miterlimit="10" stroke-width="0.1"/><line y2="189.962" transform="translate(1131.154 336.01)" fill="none" stroke="#f2f2f2" stroke-miterlimit="10" stroke-width="0.1"/><line y2="189.962" transform="translate(1208.113 336.01)" fill="none" stroke="#f2f2f2" stroke-miterlimit="10" stroke-width="0.1"/><path d="M883.237,348.809l-8.8,9.172a2.687,2.687,0,0,0-.443.643l-5.461,11.249a2.488,2.488,0,0,1-2.435,1.4l-1.75-.137a2.488,2.488,0,0,1-2.214-1.792l-1.687-5.84a2.5,2.5,0,0,0-4.765-.116l-2.836,8.307a2.5,2.5,0,0,1-2.372,1.7H839.645a2.509,2.509,0,0,1-2.467-2.108l-3.057-19.134a2.5,2.5,0,0,0-4.7-.738l-15.676,30.942a2.5,2.5,0,0,1-3.669.917l-9.32-6.578a2.519,2.519,0,0,0-3.342.4l-3.532,4.08a2.383,2.383,0,0,0-.274.39l-9.425,16.309a2.478,2.478,0,0,1-2.414,1.233l-5.746-.569a2.519,2.519,0,0,0-1.181.169l-5.145,2.056a2.5,2.5,0,0,1-3.163-1.318l-1.128-2.583a2.509,2.509,0,0,0-2.4-1.5l-5.883.274a2.467,2.467,0,0,0-1.866.98l-1.666,2.172a2.5,2.5,0,0,1-4.343-.7l-2.108-5.956a2.5,2.5,0,0,0-3.859-1.17l-10.015,7.506L722.193,407.4a2.509,2.509,0,0,1-2.72.274l-8.592-4.459a2.52,2.52,0,0,0-1.5-.253L691.979,405.4a2.509,2.509,0,0,0-2.108,1.919l-3.089,13.42a2.5,2.5,0,0,1-4.059,1.339h0a2.509,2.509,0,0,0-3.869.78l-2.372,4.755a2.53,2.53,0,0,1-1.824,1.349l-5.387.9a2.509,2.509,0,0,0-.97.39l-8.487,5.651a2.478,2.478,0,0,1-1.381.422h-3.974a2.5,2.5,0,0,1-2.3-1.508l-1.054-2.52a2.5,2.5,0,0,0-3.352-1.255l-9.214,4.312a2.509,2.509,0,0,1-2.351-.116l-4.217-2.541a2.519,2.519,0,0,0-1.286-.358h-9.309a2.5,2.5,0,0,0-1.381.422l-9.288,6.167a2.5,2.5,0,0,1-2.446.179l-4.217-1.992a2.5,2.5,0,0,0-2.941.622l-2,2.288a2.488,2.488,0,0,1-4.059-.422l-.6-1.054a2.5,2.5,0,0,0-3.458-.928l-7.306,4.333a2.5,2.5,0,0,1-2.488,0l-3.015-1.676a2.478,2.478,0,0,0-2.246-.095l-2.867,1.307a2.52,2.52,0,0,1-3.426-1.518l-1.856-5.524a2.478,2.478,0,0,0-2.383-1.74h-2.7a2.446,2.446,0,0,1-1.212-.316l-10.363-5.682a2.509,2.509,0,0,0-2.7.2l-7.6,5.693a2.478,2.478,0,0,1-1.5.5h-9.562a2.478,2.478,0,0,0-1.381.422l-1.792,1.191a2.5,2.5,0,0,1-3.627-.959l-.432-.854A2.488,2.488,0,0,0,520.3,431.5h-4.8a2.5,2.5,0,0,0-1.971.97l-2.973,3.806a2.5,2.5,0,0,1-4.08-.2l-.843-1.318a2.488,2.488,0,0,0-3.395-.8l-2.467,1.476a2.509,2.509,0,0,1-2.752-.116l-9.941-7.2a3.019,3.019,0,0,0-.569-.316l-7.77-2.983a2.5,2.5,0,0,0-3.163,1.392l-5.408,13.178a2.256,2.256,0,0,0-.158.58l-1.75,11.871a2.509,2.509,0,0,1-.654,1.339l-3.7,3.974a2.52,2.52,0,0,1-3.047.474l-6.42-3.563a2.5,2.5,0,0,0-3.584,1.37l-4.069,11.9a2.394,2.394,0,0,0-.137.812v7.506a2.5,2.5,0,0,1-1.508,2.288l-6.526,2.889a2.5,2.5,0,0,1-2.267-.148l-4.913-2.889a2.5,2.5,0,0,0-1.624-.316l-8.613,1.233a2.488,2.488,0,0,1-2.509-1.223L417.236,475a2.477,2.477,0,0,0-1.413-1.117l-3.911-1.223a2.488,2.488,0,0,0-2.6.706l-5.429,6.03a2.53,2.53,0,0,1-1.655.822l-8.012.675a2.362,2.362,0,0,0-1.054.316l-13.969,8.033a2.509,2.509,0,0,1-2.8-.221l-3.964-3.163a2.53,2.53,0,0,0-1.56-.548H355.848a2.478,2.478,0,0,1-1.95-.938l-3.785-4.723a2.5,2.5,0,0,0-3.806-.105l-4.554,5.06a2.5,2.5,0,0,0-.643,1.666v62.874a2.5,2.5,0,0,0,2.5,2.5H885.2a2.5,2.5,0,0,0,2.5-2.509l-.148-198.543a2.509,2.509,0,0,0-4.312-1.782Z" transform="translate(341.522 -25.619)" fill="#ef2b79" opacity="0.246"/><path d="M882.751,426.027l-8.16,5.44a3.164,3.164,0,0,0-.748.706l-5.071,6.694a3.163,3.163,0,0,1-2.615,1.223l-1.655-.084a3.1,3.1,0,0,1-2.667-1.813l-1.054-2.245a3.078,3.078,0,0,0-5.535-.179l-2.109,4.038a3.078,3.078,0,0,1-2.73,1.634H839.949a3.068,3.068,0,0,1-2.994-2.34l-2.509-10.047a3.089,3.089,0,0,0-5.419-1.17l-15.076,19.061a3.068,3.068,0,0,1-3.69.9l-9.688-4.375a3.089,3.089,0,0,0-3.163.327l-3.468,2.562a2.866,2.866,0,0,0-.453.422L784.339,456.9a3.089,3.089,0,0,1-2.488,1.054l-5.977-.38a3.334,3.334,0,0,0-.97.084l-5.387,1.381A3.078,3.078,0,0,1,766.2,457.8l-.611-.907a3.089,3.089,0,0,0-2.636-1.339l-6.009.179a2.973,2.973,0,0,0-1.887.717l-1.476,1.234a3.089,3.089,0,0,1-4.691-.875l-1.56-2.825a3.089,3.089,0,0,0-4.038-1.3l-10.11,4.86-11.185,5.777a3.068,3.068,0,0,1-2.383.179l-8.908-2.952a3.162,3.162,0,0,0-1.244-.148L692.21,461.87a3.163,3.163,0,0,0-2.635,2.035l-2.5,6.979a3.089,3.089,0,0,1-4.386,1.666l-.105-.053a3.068,3.068,0,0,0-3.911.8l-1.961,2.509a3.163,3.163,0,0,1-2.108,1.17l-5.4.58a3.164,3.164,0,0,0-.885.221l-8.55,3.658a3.226,3.226,0,0,1-1.212.242h-4.112a3.089,3.089,0,0,1-2.551-1.349l-.59-.865a3.089,3.089,0,0,0-3.437-1.212l-9.583,2.9a3.1,3.1,0,0,1-2-.074l-4.449-1.708a3.036,3.036,0,0,0-1.054-.211h-9.551a2.962,2.962,0,0,0-1.2.253l-9.488,4.027a3.058,3.058,0,0,1-2.109.116l-4.691-1.4a3.1,3.1,0,0,0-2.709.464l-2.056,1.508a3.089,3.089,0,0,1-4.143-.453l-.306-.348a3.089,3.089,0,0,0-3.416-.854l-7.643,2.92a3.078,3.078,0,0,1-2.108,0l-3.353-1.2a3.163,3.163,0,0,0-1.9-.053l-3.163.917a3.089,3.089,0,0,1-3.616-1.581l-1.181-2.372a3.1,3.1,0,0,0-2.762-1.708h-2.741a3.058,3.058,0,0,1-1.054-.169l-10.637-3.732a3.057,3.057,0,0,0-2.362.126l-7.77,3.732a3.162,3.162,0,0,1-1.339.306h-9.815a3.225,3.225,0,0,0-1.212.242l-2,.864a3.1,3.1,0,0,1-3.648-.938h0a3.078,3.078,0,0,0-2.435-1.191h-4.955a3.1,3.1,0,0,0-1.961.7l-2.878,2.361a3.068,3.068,0,0,1-4.143-.211l-.654-.654a3.089,3.089,0,0,0-3.3-.706l-2.867,1.107a3.163,3.163,0,0,1-2.414-.084l-10.089-4.681a2.5,2.5,0,0,0-.559-.19l-7.917-1.95a3.068,3.068,0,0,0-3.331,1.328l-4.976,7.759a3.161,3.161,0,0,0-.411.97l-1.508,6.589a3.163,3.163,0,0,1-1.265,1.855l-3.289,2.256a3.058,3.058,0,0,1-2.773.358l-6.768-2.4a3.089,3.089,0,0,0-3.785,1.518l-3.563,6.663a3.164,3.164,0,0,0-.358,1.455v3a3.1,3.1,0,0,1-2.267,2.973l-5.925,1.645a3.036,3.036,0,0,1-1.908-.084l-5.166-1.95a3.035,3.035,0,0,0-1.37-.19l-8.908.812a3.058,3.058,0,0,1-2.562-.991l-1.054-1.17a2.994,2.994,0,0,0-1.676-.949l-4.059-.822a3.162,3.162,0,0,0-2.4.517l-5.345,3.806a3.162,3.162,0,0,1-1.623.569l-8.191.432a3.228,3.228,0,0,0-.907.19l-14.222,5.271a3.015,3.015,0,0,1-2.467-.148l-4.111-2.108a3.088,3.088,0,0,0-1.4-.337H355.752a3.089,3.089,0,0,1-1.94-.685l-3.7-2.963a3.089,3.089,0,0,0-3.721-.105l-3.964,2.825a3.1,3.1,0,0,0-1.3,2.52v29.634a3.089,3.089,0,0,0,3.089,3.089H884.607a3.089,3.089,0,0,0,3.089-3.089l-.148-115.723a3.089,3.089,0,0,0-4.8-2.615Z" transform="translate(341.523 -21.418)" fill="#ef2b79" opacity="0.503"/><ellipse cx="7.38" cy="7.38" rx="7.38" ry="7.38" transform="translate(1219.077 396.449)" fill="#ef2b79"/><path d="M884.46,494.516l-10.026,3.342a2.619,2.619,0,0,0-.548.263l-5.5,3.637a2.341,2.341,0,0,1-1.349.379l-3.426-.084a2.34,2.34,0,0,1-1.687-.77l-2.108-2.319a2.351,2.351,0,0,0-3.352-.137l-3.553,3.331a2.32,2.32,0,0,1-1.6.643H838.991a2.33,2.33,0,0,1-2.108-1.307l-2.815-5.619a2.351,2.351,0,0,0-3.352-.938l-17.426,11.038a2.372,2.372,0,0,1-1.771.306l-11.934-2.688a2.287,2.287,0,0,0-1.328.084L793.9,505.29a1.486,1.486,0,0,0-.327.148l-9.625,5.334a2.426,2.426,0,0,1-1.212.3l-7.127-.232a2.116,2.116,0,0,0-.369,0l-6.852.875a2.393,2.393,0,0,1-1.687-.432l-1.392-1.054a2.319,2.319,0,0,0-1.423-.453l-7.517.105a2.234,2.234,0,0,0-.875.179l-3.374,1.423a2.361,2.361,0,0,1-2.488-.432l-2.762-2.446a2.341,2.341,0,0,0-2.108-.538l-11.533,2.783-11.86,3.068a2.311,2.311,0,0,1-.97,0l-10.015-1.666a3.737,3.737,0,0,0-.485,0l-18.523.833a2.34,2.34,0,0,0-1.8.98l-2.794,3.848a2.34,2.34,0,0,1-2.53.9l-2.984-.822a2.383,2.383,0,0,0-1.887.3l-2.983,1.908a2.413,2.413,0,0,1-1.139.358l-6.325.348a2.092,2.092,0,0,0-.358,0l-9.13,1.95a2.632,2.632,0,0,1-.5.053h-5.356a2.33,2.33,0,0,1-1.381-.453l-1.391-1.054a2.308,2.308,0,0,0-1.729-.432l-11.4,1.708a2.486,2.486,0,0,1-.791,0l-5.356-1.054a2.113,2.113,0,0,0-.443,0H620.829a2.529,2.529,0,0,0-.485,0l-10.426,2.214a2.267,2.267,0,0,1-.843,0l-6.209-.938a2.413,2.413,0,0,0-1.16.126l-3.985,1.455a2.309,2.309,0,0,1-1.971-.169l-1.887-1.054a2.277,2.277,0,0,0-1.592-.274l-9.488,1.8a2.327,2.327,0,0,1-.854,0l-4.565-.812a2.551,2.551,0,0,0-.749,0l-5.039.727a2.319,2.319,0,0,1-1.992-.654l-1.666-1.592a2.4,2.4,0,0,0-1.666-.685h-4a2.473,2.473,0,0,1-.4,0l-11.66-2.045a2.269,2.269,0,0,0-.959,0l-8.813,2.108a2.358,2.358,0,0,1-.548.063H529.258a2.43,2.43,0,0,0-.485,0l-3.595.77a2.4,2.4,0,0,1-1.8-.211l-.991-.643a2.361,2.361,0,0,0-1.265-.369H514.7a2.329,2.329,0,0,0-.886.179l-4.491,1.834a2.309,2.309,0,0,1-1.94-.074l-2.383-1.2a2.372,2.372,0,0,0-1.5-.211l-4.7.907a2.319,2.319,0,0,1-.97,0l-10.9-2.53h-.242l-9.267-1.149a2.382,2.382,0,0,0-1.729.485l-5.271,4.09a2.3,2.3,0,0,0-.685.865l-1.181,2.625a2.372,2.372,0,0,1-1.37,1.244l-4.048,1.381a2.215,2.215,0,0,1-1.17.095l-9-1.6a2.361,2.361,0,0,0-2.014.6l-3.574,3.342a2.34,2.34,0,0,0-.738,1.718h0a2.341,2.341,0,0,1-2.025,2.319l-6.757.938a2.3,2.3,0,0,1-.759,0l-6.115-1.16a2.366,2.366,0,0,0-.548,0l-10.215.464a2.414,2.414,0,0,1-1.233-.285l-1.792-.981a2.235,2.235,0,0,0-.9-.285l-5.366-.538a2.4,2.4,0,0,0-1.054.127l-6.325,2.245a2.407,2.407,0,0,1-.727.137l-8.993.242a2.185,2.185,0,0,0-.369,0l-15.234,2.815a2.466,2.466,0,0,1-1,0l-5.187-1.328a2.733,2.733,0,0,0-.59-.074H355.1a2.236,2.236,0,0,1-.875-.169l-5.124-2.045a2.33,2.33,0,0,0-1.666,0l-4.765,1.7a2.33,2.33,0,0,0-1.56,2.2v1.054a2.34,2.34,0,0,0,2.34,2.351H885.325a2.34,2.34,0,0,0,2.34-2.351l-.137-44.562a2.351,2.351,0,0,0-3.068-2.33Z" transform="translate(341.522 -17.682)" fill="#ef2b79"/><ellipse cx="7.38" cy="7.38" rx="7.38" ry="7.38" transform="translate(813.198 445.998)" fill="#ef2b79"/><ellipse cx="7.38" cy="7.38" rx="7.38" ry="7.38" transform="translate(1167.42 399.611)" fill="#ef2b79"/><ellipse cx="7.38" cy="7.38" rx="7.38" ry="7.38" transform="translate(983.984 449.16)" fill="#ef2b79"/><ellipse cx="7.38" cy="7.38" rx="7.38" ry="7.38" transform="translate(1079.919 422.805)" fill="#ef2b79"/><path d="M378.951,516.427a3.518,3.518,0,0,1-1.631-.4l-4.108-2.107a2.6,2.6,0,0,0-1.174-.282H356.752a3.6,3.6,0,0,1-2.254-.8l-3.7-2.961a2.6,2.6,0,0,0-3.119-.088l-3.964,2.825a2.6,2.6,0,0,0-1.087,2.113h-1a3.607,3.607,0,0,1,1.506-2.926l3.965-2.826a3.6,3.6,0,0,1,4.324.122l3.7,2.963a2.6,2.6,0,0,0,1.627.575h15.286a3.606,3.606,0,0,1,1.629.392l4.112,2.109a2.52,2.52,0,0,0,2.061.125l14.225-5.272a3.73,3.73,0,0,1,1.049-.22l8.2-.433a2.657,2.657,0,0,0,1.362-.479l5.342-3.8a3.685,3.685,0,0,1,2.787-.6h.006l4.053.821a3.513,3.513,0,0,1,1.956,1.107l1.053,1.168a2.567,2.567,0,0,0,2.142.828l8.911-.812a3.556,3.556,0,0,1,1.6.221l5.163,1.949a2.554,2.554,0,0,0,1.6.071l5.927-1.645a2.609,2.609,0,0,0,1.9-2.493v-3a3.68,3.68,0,0,1,.415-1.686l0,0,3.562-6.659a3.6,3.6,0,0,1,4.394-1.757l6.769,2.4a2.564,2.564,0,0,0,2.322-.3l3.29-2.257a2.658,2.658,0,0,0,1.061-1.557l1.507-6.587a3.656,3.656,0,0,1,.477-1.127l4.976-7.76a3.563,3.563,0,0,1,3.873-1.543l7.908,1.948a3,3,0,0,1,.663.226h0l10.084,4.678a2.643,2.643,0,0,0,2.029.069l2.862-1.1a3.59,3.59,0,0,1,3.835.82l.652.652a2.568,2.568,0,0,0,3.471.179l2.88-2.363a3.611,3.611,0,0,1,2.274-.809h4.962a3.6,3.6,0,0,1,2.827,1.385,2.6,2.6,0,0,0,3.057.785l2.008-.867a3.707,3.707,0,0,1,1.4-.28h9.817a2.677,2.677,0,0,0,1.124-.257l7.768-3.731a3.578,3.578,0,0,1,2.747-.146l10.634,3.731a2.544,2.544,0,0,0,.88.141h2.749a3.582,3.582,0,0,1,3.209,1.983l1.181,2.374a2.59,2.59,0,0,0,3.03,1.324l3.162-.917a3.647,3.647,0,0,1,2.2.06l.006,0,3.352,1.2a2.583,2.583,0,0,0,1.766,0L591.931,482a3.605,3.605,0,0,1,3.97.992l.305.347a2.576,2.576,0,0,0,3.472.38l2.055-1.507a3.621,3.621,0,0,1,3.148-.54l4.692,1.4a2.562,2.562,0,0,0,1.767-.1l9.49-4.028a3.441,3.441,0,0,1,1.394-.293h9.565a3.526,3.526,0,0,1,1.228.246l4.445,1.706a2.612,2.612,0,0,0,1.68.062l9.582-2.9a3.577,3.577,0,0,1,3.994,1.408l.591.865a2.587,2.587,0,0,0,2.138,1.131h4.111a2.71,2.71,0,0,0,1.019-.2l8.554-3.66a3.665,3.665,0,0,1,1.025-.256l5.394-.579a2.643,2.643,0,0,0,1.771-.985l1.958-2.505a3.568,3.568,0,0,1,4.537-.936l.112.057a2.589,2.589,0,0,0,3.676-1.4l2.5-6.985a3.642,3.642,0,0,1,3.052-2.356h.009l17.247-1.476a3.649,3.649,0,0,1,1.443.171l8.909,2.952a2.583,2.583,0,0,0,2-.149l11.2-5.783,10.11-4.86a3.592,3.592,0,0,1,4.692,1.506l1.56,2.825a2.589,2.589,0,0,0,3.932.734l1.474-1.232a3.479,3.479,0,0,1,2.2-.835l6.007-.179A3.571,3.571,0,0,1,767,456.6l.614.91a2.583,2.583,0,0,0,2.78,1.04l5.4-1.384a3.829,3.829,0,0,1,1.115-.1l5.974.379a2.573,2.573,0,0,0,2.085-.884l.006-.006,9.146-10.126a3.367,3.367,0,0,1,.53-.493l3.47-2.563a3.581,3.581,0,0,1,3.669-.379l9.685,4.374a2.561,2.561,0,0,0,3.091-.749l15.077-19.062a3.589,3.589,0,0,1,6.3,1.359l2.509,10.047a2.561,2.561,0,0,0,2.5,1.962h10.482a2.572,2.572,0,0,0,2.279-1.369l2.107-4.035a3.578,3.578,0,0,1,6.432.2l1.056,2.248a2.59,2.59,0,0,0,2.237,1.521l1.649.084a2.665,2.665,0,0,0,2.2-1.029l5.068-6.69a3.654,3.654,0,0,1,.868-.819l8.162-5.441a3.589,3.589,0,0,1,5.574,2.976l-1,0a2.589,2.589,0,0,0-4.02-2.147l-8.159,5.439a2.65,2.65,0,0,0-.628.593l-5.073,6.7a3.672,3.672,0,0,1-3.028,1.416h-.007l-1.655-.084a3.586,3.586,0,0,1-3.1-2.105l-1.056-2.249a2.578,2.578,0,0,0-4.636-.15l-2.108,4.036a3.57,3.57,0,0,1-3.161,1.9H840.933a3.556,3.556,0,0,1-3.464-2.722l-2.508-10.044a2.589,2.589,0,0,0-4.542-.981l-15.075,19.06a3.557,3.557,0,0,1-4.29,1.041l-9.692-4.377a2.585,2.585,0,0,0-2.651.274l-3.471,2.564a2.361,2.361,0,0,0-.372.347l-.007.008-9.15,10.13a3.567,3.567,0,0,1-2.886,1.219h-.006l-5.978-.379a2.821,2.821,0,0,0-.82.071l-5.381,1.38a3.585,3.585,0,0,1-3.858-1.447l-.613-.909a2.581,2.581,0,0,0-2.207-1.119l-6.015.179a2.478,2.478,0,0,0-1.57.6l-.005,0-1.476,1.234a3.589,3.589,0,0,1-5.45-1.017l-1.56-2.825a2.591,2.591,0,0,0-3.385-1.087l-10.1,4.857-11.177,5.773a3.588,3.588,0,0,1-2.772.209l-8.906-2.951a2.649,2.649,0,0,0-1.046-.124l-17.241,1.475a2.648,2.648,0,0,0-2.212,1.708l-2.5,6.976a3.589,3.589,0,0,1-5.088,1.94l-.116-.059a2.555,2.555,0,0,0-3.274.671l-1.962,2.51a3.642,3.642,0,0,1-2.445,1.359l-5.4.58a2.668,2.668,0,0,0-.748.186l-8.55,3.658a3.709,3.709,0,0,1-1.4.28h-4.114a3.586,3.586,0,0,1-2.964-1.568l-.59-.864a2.58,2.58,0,0,0-2.88-1.016l-9.582,2.9a3.618,3.618,0,0,1-2.327-.086l-4.449-1.708a2.535,2.535,0,0,0-.878-.178h-9.552a2.447,2.447,0,0,0-1,.21l-.007,0-9.488,4.027a3.559,3.559,0,0,1-2.45.134l-4.688-1.4a2.614,2.614,0,0,0-2.272.389l-2.054,1.506a3.589,3.589,0,0,1-4.814-.526l-.306-.348a2.6,2.6,0,0,0-2.863-.716l-7.649,2.922a3.584,3.584,0,0,1-2.451,0l-3.347-1.2a2.65,2.65,0,0,0-1.595-.043l-3.16.916a3.591,3.591,0,0,1-4.2-1.837l-1.182-2.374a2.586,2.586,0,0,0-2.316-1.431h-2.736a3.556,3.556,0,0,1-1.222-.2l-10.639-3.733a2.575,2.575,0,0,0-1.978.1l-7.771,3.733a3.689,3.689,0,0,1-1.553.355h-9.818a2.711,2.711,0,0,0-1.021.2l-2,.862a3.607,3.607,0,0,1-4.239-1.088,2.6,2.6,0,0,0-2.039-1h-4.961a2.607,2.607,0,0,0-1.642.584l-2.877,2.36a3.568,3.568,0,0,1-4.817-.247l-.651-.651a2.591,2.591,0,0,0-2.767-.593l-2.872,1.109a3.639,3.639,0,0,1-2.8-.1l-10.1-4.685a2,2,0,0,0-.447-.152l-.016,0-7.917-1.95a2.565,2.565,0,0,0-2.79,1.111l-4.977,7.76a2.653,2.653,0,0,0-.346.816l-1.508,6.59a3.659,3.659,0,0,1-1.465,2.149l-3.293,2.258a3.564,3.564,0,0,1-3.225.416l-6.766-2.4a2.6,2.6,0,0,0-3.171,1.273l-.005.01-3.561,6.658h0a2.673,2.673,0,0,0-.3,1.225v3a3.614,3.614,0,0,1-2.632,3.454l-5.925,1.645a3.558,3.558,0,0,1-2.22-.1l-5.164-1.95a2.554,2.554,0,0,0-1.148-.16l-8.909.812a3.571,3.571,0,0,1-2.978-1.153l-1.055-1.171a2.509,2.509,0,0,0-1.4-.792h-.006l-4.058-.822a2.678,2.678,0,0,0-2.018.436l-5.342,3.8a3.663,3.663,0,0,1-1.883.661l-8.2.432a2.721,2.721,0,0,0-.761.16l-14.219,5.27A3.5,3.5,0,0,1,378.951,516.427Z" transform="translate(341.578 -21.418)" fill="#ef2b79"/><ellipse cx="5.271" cy="5.271" rx="5.271" ry="5.271" transform="translate(741.511 564.07)" fill="#d6d6e3"/><ellipse cx="5.271" cy="5.271" rx="5.271" ry="5.271" transform="translate(818.47 564.07)" fill="#d6d6e3"/><ellipse cx="5.271" cy="5.271" rx="5.271" ry="5.271" transform="translate(895.429 564.07)" fill="#d6d6e3"/><ellipse cx="5.271" cy="5.271" rx="5.271" ry="5.271" transform="translate(972.387 564.07)" fill="#d6d6e3"/><ellipse cx="5.271" cy="5.271" rx="5.271" ry="5.271" transform="translate(1049.346 564.07)" fill="#d6d6e3"/><ellipse cx="5.271" cy="5.271" rx="5.271" ry="5.271" transform="translate(1126.305 564.07)" fill="#d6d6e3"/><ellipse cx="5.271" cy="5.271" rx="5.271" ry="5.271" transform="translate(1203.264 564.07)" fill="#d6d6e3"/></g></g></svg>