<svg xmlns="http://www.w3.org/2000/svg" width="799.465" height="552.326" viewBox="0 0 799.465 552.326" xmlns:xlink="http://www.w3.org/1999/xlink" role="img" artist="Katerina Limpitsouni" source="https://undraw.co/"><g transform="translate(-560.267 -263.836)"><path d="M1352.3,232.384H580.059a13.747,13.747,0,0,0-13.613,13.848v524.66a13.74,13.74,0,0,0,13.613,13.819H1352.3a13.741,13.741,0,0,0,13.613-13.819V246.232a13.747,13.747,0,0,0-13.611-13.848Z" transform="translate(-6.18 31.451)" fill="#090814"/><path d="M1236.279,232.384H578.049a11.628,11.628,0,0,0-11.6,11.627V684.536a11.623,11.623,0,0,0,11.6,11.6h658.229a11.623,11.623,0,0,0,11.6-11.6V244.011a11.628,11.628,0,0,0-11.6-11.627Z" transform="translate(-3.436 34.195)" fill="#090814"/><path d="M1328.244,232.384h-748.6a13.225,13.225,0,0,0-13.2,13.223V746.614a13.219,13.219,0,0,0,13.2,13.2h748.6a13.219,13.219,0,0,0,13.2-13.2V245.608a13.224,13.224,0,0,0-13.194-13.223Z" transform="translate(-4.945 34.195)" fill="#fff"/><circle cx="183.5" cy="183.5" r="183.5" transform="translate(777 357)" fill="#d80808"/><ellipse cx="105.981" cy="84.761" rx="105.981" ry="84.761" transform="translate(824.779 551.473) rotate(-43.502)" fill="#d6d6e3"/><path d="M0,0H106.3V106.3H0Z" transform="translate(906.848 486.848)" fill="none"/><path d="M-21362.514-17914.414a17.681,17.681,0,0,1-13.2-5.9,4.43,4.43,0,0,1,2.809-7.359l.49-.027,2.9-4.432h-28.434a4.429,4.429,0,0,1-2.186-8.283c3.416-1.936,5.8-5.281,6.617-22.924a35.438,35.438,0,0,1,16.924-28.59l1.1-.645.043-.193a13.3,13.3,0,0,1,11.352-10.143l.8-.076.779-.016a13.3,13.3,0,0,1,12.736,9.482l.205.758.037.193a35.487,35.487,0,0,1,17.82,26.881l.123,1.268c.783,18.131,2.59,21.049,5.242,23.047l.736.516.721.441a4.431,4.431,0,0,1-1.672,8.256l-.51.027h-28.445l2.906,4.432a4.43,4.43,0,0,1,3.3,7.387,17.687,17.687,0,0,1-13.18,5.9Zm34.838-64.8c-2.637-5.748-4.475-12.865-9.246-17.014a4.428,4.428,0,0,1-.445-6.246v-.006a4.43,4.43,0,0,1,6.248-.436c5.727,4.969,8.326,13.107,11.5,20a4.432,4.432,0,0,1-2.176,5.877,4.4,4.4,0,0,1-1.846.406A4.44,4.44,0,0,1-21327.676-17979.213Zm-74.742,2.176a4.427,4.427,0,0,1-2.176-5.877c3.17-6.893,5.77-15.031,11.5-20a4.423,4.423,0,0,1,6.242.436v.006a4.433,4.433,0,0,1-.439,6.246c-4.777,4.148-6.613,11.266-9.252,17.014a4.437,4.437,0,0,1-4.029,2.582A4.417,4.417,0,0,1-21402.418-17977.037Z" transform="translate(22322.109 18499.207)"/></g></svg>