<svg xmlns="http://www.w3.org/2000/svg" width="927.664" height="870.722" viewBox="0 0 927.664 870.722" xmlns:xlink="http://www.w3.org/1999/xlink" role="img" artist="Katerina Limpitsouni" source="https://undraw.co/"><g transform="translate(0 -19.814)"><g transform="translate(745.554 207.533) rotate(172)"><path d="M97.47,70.391c0-14.683-5.13-27.22-14.893-36.548C75.65,27.22,64.98,17.936,64.98,8.121V0H32.49V8.121c0,9.918-10.712,19.22-17.6,25.722C5.352,42.845,0,56.233,0,70.391v.3a48.735,48.735,0,1,0,97.47-.3Z" transform="translate(19.824 28.498)" fill="#6c63ff"/><path d="M66.112,0a1.14,1.14,0,0,0-1.14,1.14V9.267c0,9.547,9.415,18.461,16.292,24.968.57.541,1.125,1.064,1.658,1.575C92.433,44.9,97.461,57.256,97.461,71.535a47.086,47.086,0,0,1-47.592,47.592h-.134A47.512,47.512,0,0,1,2.277,71.8v-.266c0-13.984,5.3-27,14.533-35.723.468-.442.954-.9,1.452-1.364,6.963-6.522,16.5-15.451,16.5-25.185V1.141a1.141,1.141,0,0,0-2.283,0V9.265c0,8.746-9.12,17.283-15.783,23.522l-1.458,1.37C5.557,43.3,0,56.928,0,71.535v.274a49.8,49.8,0,0,0,49.731,49.6h.141A49.612,49.612,0,0,0,99.741,72.056v-.522c0-14.917-5.271-27.84-15.243-37.37-.535-.512-1.093-1.043-1.666-1.583C76.258,26.357,67.251,17.834,67.251,9.269V1.145a1.14,1.14,0,0,0-1.14-1.14Z" transform="translate(18.691 27.355)" fill="#3f3d56"/><path d="M23.56,0H1.9a1.9,1.9,0,0,0,0,3.8H23.56a1.9,1.9,0,0,0,0-3.8Z" transform="translate(55.829 12.73)" fill="#6c63ff"/><path d="M9.783,0H5.123a8.911,8.911,0,0,0-4.6,1.273A1.061,1.061,0,0,0,.045,2.495a1.1,1.1,0,0,0,1.064.814H13.8a1.1,1.1,0,0,0,1.065-.814,1.061,1.061,0,0,0-.482-1.222A8.909,8.909,0,0,0,9.783,0Z" transform="translate(61.104 0)" fill="#3f3d56"/><path d="M21.9,0,.116,0,.051.147A1.8,1.8,0,0,0,.39,1.689a1.845,1.845,0,0,0,1.454.7H20.3a1.845,1.845,0,0,0,1.452-.7A1.785,1.785,0,0,0,22.094.165L22.06.018Z" transform="translate(57.49 6.729)" fill="#3f3d56"/><path d="M18.171,0a1.891,1.891,0,0,0-1.25.469L.607,14.713a1.9,1.9,0,0,0,2.5,2.862L19.421,3.333A1.9,1.9,0,0,0,18.171,0Z" transform="translate(0 143.674)" fill="#e4e4e4"/><path d="M1.9,0A1.9,1.9,0,0,0,.652,3.333L16.969,17.576a1.9,1.9,0,1,0,2.5-2.863L3.152.471A1.891,1.891,0,0,0,1.9,0Z" transform="translate(114.339 143.675)" fill="#e4e4e4"/><path d="M34.391,0H1.9a1.9,1.9,0,0,0,0,3.8h32.49a1.9,1.9,0,1,0,0-3.8Z" transform="translate(50.414 19.473)" fill="#6c63ff"/><path d="M10.614,40.611,3.857,0H0L6.863,41.234a1.9,1.9,0,1,0,3.749-.625Z" transform="translate(57.148 28.498)" fill="#e6e6e6"/><path d="M10.639,0H6.783L.026,40.611a1.9,1.9,0,0,0,3.75.625Z" transform="translate(70.106 28.498)" fill="#e6e6e6"/><path d="M0,1.9A1.9,1.9,0,0,0,1.9,3.8H22.8a1.9,1.9,0,0,0,0-3.8H1.9A1.9,1.9,0,0,0,0,1.9Z" transform="translate(56.211 68.565)" fill="#e6e6e6"/><path d="M1.9,0A1.9,1.9,0,0,0,0,1.9V34.39a1.9,1.9,0,1,0,3.8,0V1.9A1.9,1.9,0,0,0,1.9,0Z" transform="translate(66.659 162.642)" fill="#e4e4e4"/></g><rect width="33.699" height="44.416" transform="translate(451.051 814.062)" fill="#ed9da0"/><path d="M330.281,608.9H258.648a41.314,41.314,0,0,1-17.794-4.054L227.648,598.5a7.93,7.93,0,0,1,1.321-14.791l27.244-7.538,46.609-24.5.034.177c.871,4.412,2.222,11.084,2.393,11.488,4.78,5.476,9.69,8,14.594,7.5,8.554-.868,14.241-10.744,14.3-10.845l.043-.076.087.009a5.673,5.673,0,0,1,4.4,2.4c1.951,2.941.761,7.476.565,8.157,2.337,2.287,3.386,15.056,3.467,16.086,3.379,3.581,4.984,7.025,4.772,10.235-.186,2.805-1.741,5.411-4.624,7.744a20,20,0,0,1-12.575,4.353Z" transform="translate(148.72 280.235)" fill="#090814"/><path d="M0,103.522a46.383,46.383,0,1,0,60.28-44.263L51.315,0,5.6,38.092S15.476,50.67,20.773,64.854A46.333,46.333,0,0,0,0,103.522Z" transform="translate(850.671 464.32) rotate(-161)" fill="#ed9da0"/><path d="M628.938,236.869,563.655,240l-7.794,17.539S472.706,396.411,429.852,394.623,497.4,499.184,497.4,499.184L627.964,333.543l4.872-76.667Z" transform="translate(236.549 164.091)" fill="#d6d6e3"/><path d="M367.214,432.611l-26.462-3c6.74,14.3,4.38,47.708-.452,81.041-6.379,43.9-17.084,124.656-17.084,124.656L278.4,623.674v-219.4c0-29.267,84.614-42.573,147.915-48.434,37.811-3.49,68.018-4.34,68.018-4.34l87.613,105.409Z" transform="translate(169.092 206.383)" fill="#090814"/><rect width="33.699" height="44.416" transform="translate(556.904 793.865) rotate(-34.231)" fill="#ed9da0"/><path d="M440.365,549.8c-1.629-2.765-4.887-4.709-9.705-5.76-.643-.808-8.693-10.774-11.91-11.362-.218-.672-1.78-5.079-5.052-6.421a5.108,5.108,0,0,0-3.326-.179,7.356,7.356,0,0,0-1.67.672l-.082.041.013.082c.013.123.858,11.486-5.722,17.017-3.778,3.162-9.254,3.847-16.29,2.012-.368-.245-5.229-5-8.433-8.159l-.137-.122-.26.479-24.49,46L335.026,605.66a7.921,7.921,0,0,0,7.231,12.964l14.48-2.177a41.461,41.461,0,0,0,16.989-6.652l59.234-40.3a20.036,20.036,0,0,0,7.939-10.678C441.967,555.269,441.789,552.245,440.365,549.8Z" transform="translate(189.29 270.721)" fill="#090814"/><path d="M378.966,458.441c26.94,44.682,54.183,117.552,54.183,117.552l-7.353,2.629L393.009,590.34l-3.463,1.245-37.5-55.1c-21.546-31.677-47.174-69.35-61.9-90.98V430.1c0-29.267,84.614-42.573,147.915-48.434l-85.341,44.942C360.719,431.341,369.823,443.259,378.966,458.441Z" transform="translate(173.412 217.514)" fill="#090814"/><path d="M705.522,322.029h0a36.341,36.341,0,0,0-56.97,1L536.48,469.744,357.849,449.2A32.171,32.171,0,0,0,322.1,478.694h0a32.171,32.171,0,0,0,27.5,34.315l204.849,29.449a69.834,69.834,0,0,0,70.356-34.1l84.073-145.044a36.341,36.341,0,0,0-3.352-41.284Z" transform="translate(185.183 190.609)" fill="#e6e6e6"/><rect width="25.333" height="199.585" transform="translate(557.588 689.582)" fill="#e6e6e6"/><rect width="25.333" height="199.585" transform="translate(731.444 689.582)" fill="#e6e6e6"/><path d="M434.768,344.182,477.848,363.6,466.513,388.75l-43.08-19.415a28.957,28.957,0,0,1-22.365-1c-13.428-6.052-20.255-19.967-15.246-31.08s19.954-15.216,33.383-9.165a28.959,28.959,0,0,1,15.565,16.093Z" transform="translate(208.124 196.714)" fill="#ed9da0"/><path d="M552.64,286.135,517.563,387.469l-81.847-25.333-12.127,31.307L541.5,438.279l73.762-131.108" transform="translate(226.129 182.266)" fill="#d6d6e3"/><path d="M909.889,1.738H0V-1H909.889Z" transform="translate(0 888.798)" fill="#e6e6e6"/><path d="M587.826,560.085c0-7.108-2.388-12.884-5.32-12.9H361.589c-2.941.012-5.32,5.785-5.337,12.9V852.853a2.658,2.658,0,0,1-2.4,2.645q-3.218.309-6.438.575c-.054,0-.107.012-.159.012-1.168.107-2.336.186-3.5.278h-.013q-.9-1.666-1.782-3.361a2.669,2.669,0,0,1-.3-1.233V543.353c0-1.961.08-3.94.213-5.891a75.551,75.551,0,0,1,1-7.988c2.241-12.327,7.312-20.673,13.07-20.7H588.145a6.215,6.215,0,0,1,2.443.517,9.52,9.52,0,0,1,3.012,2.11,18.679,18.679,0,0,1,2.958,4.044c2.84,5,4.869,12.46,5.586,21.133,0,.08.012.159.012.245.186,2.15.278,4.338.266,6.529l.186,28.433.123,16.958.359,53.208.132,18.892.583,193.993h0a2.653,2.653,0,0,1-2.653,2.653H590.479a2.653,2.653,0,0,1-2.653-2.653Z" transform="translate(-242.313 31.675)" fill="#e6e6e6"/><path d="M249.155,332.72l-15.37,67.612-9.819,10.755h-7.084l29.2-122.932,1.444,20.889v.015Z" transform="translate(-59.758 128.847)" fill="#090814"/><path d="M495.141,501.571,404.991,501l-8.005-.054-5.706-.039-6.647-.039h-.054A3.668,3.668,0,0,0,382,501.93l-11.225,11.226a2.894,2.894,0,0,0-.6.858,1.293,1.293,0,0,0-.173.292,3.748,3.748,0,0,0,3.37,5.229H490.165a3.716,3.716,0,0,0,3.345-2.123l.915-1.99,1.884-4.044,2.135-4.565a3.638,3.638,0,0,0,.344-1.553,3.7,3.7,0,0,0-3.65-3.677Z" transform="translate(-231.788 29.094)" fill="#090814"/><path d="M494.428,512.17l-.922,2a3.715,3.715,0,0,1-3.335,2.12H373.377a3.735,3.735,0,0,1-3.365-5.229,1.109,1.109,0,0,1,.169-.292Z" transform="translate(-231.791 32.328)" opacity="0.17" style="isolation:isolate"/><path d="M247.522,309.044v.015l-25,102.037h-5.638l29.195-122.941Z" transform="translate(-59.753 128.847)" opacity="0.17" style="isolation:isolate"/><path d="M448.435,520.65,413.046,251.408a3.842,3.842,0,0,0-1.46-2.548l-24.361-30.493-2.189-1.685a3.886,3.886,0,0,0-2.84-.756l-3.662.49a3.842,3.842,0,0,0-3.318,4.3h0l36.674,278.969v.012l2.246,17.065,2.668,20.262v.027l4.14,31.527a3.758,3.758,0,0,0,1.658,2.68,3.813,3.813,0,0,0,3.1.557l2.329-.583a3.9,3.9,0,0,0,2.206-1.512l1.036-1.471.478-.69,16.029-44.187A3.816,3.816,0,0,0,448.435,520.65Z" transform="translate(-229.988 -64.066)" fill="#090814"/><path d="M387.221,218.369,431.738,567.56l-.484.683-1.031,1.471a3.889,3.889,0,0,1-2.206,1.513l-2.329.585a3.856,3.856,0,0,1-4.75-3.235L375.225,220.72a3.842,3.842,0,0,1,3.309-4.31l3.677-.483a3.788,3.788,0,0,1,2.827.76Z" transform="translate(-229.991 -64.066)" fill="#090814" opacity="0.17" style="isolation:isolate"/><path d="M217.951,97.7l23.624,33.719,28.077,213.634-15.222,30.2Z" transform="translate(-59.406 66.59)" fill="#6c63ff"/><path d="M83.477,80.415a58.9,58.9,0,0,0-11.1,1.532A28.093,28.093,0,0,1,42.352,60.993a16.073,16.073,0,0,0-1.537-5.007c-2.04-3.338-6.688-3.972-10.54-3.206a82.215,82.215,0,0,1-11.384,2.781A17.43,17.43,0,0,1,3.852,47.046,28.866,28.866,0,0,1,.161,29.6L3.053,32.64a14.692,14.692,0,0,0,1.311-7.974A9.272,9.272,0,0,1,13.146,26.9c2.55.26.625-4.73,2.518-6.46a4.384,4.384,0,0,1,3.082-.577c5.428.052,9.815-4.1,14.093-7.44A59.874,59.874,0,0,1,58.126.9a33.27,33.27,0,0,1,18.436.894,39.413,39.413,0,0,1,12.463,8.828c9.086,8.745,17.152,19.023,20.937,31.063a52.291,52.291,0,0,1,.26,30.32c-1.537,5.157-6.13,22.773-12.862,23.179C88.921,95.713,94,81.034,83.477,80.415Z" transform="translate(852.495 263.998) rotate(48)" fill="#090814"/></g></svg>